<svg xmlns="http://www.w3.org/2000/svg" viewBox="0 0 120 120" fill="none">
  <!-- Antenna -->
  <line x1="60" y1="8" x2="60" y2="24" stroke="#6366f1" stroke-width="4" stroke-linecap="round"/>
  <circle cx="60" cy="6" r="5" fill="#f59e0b"/>
  <!-- Head -->
  <rect x="20" y="24" width="80" height="65" rx="16" fill="#6366f1"/>
  <!-- Eyes -->
  <circle cx="42" cy="52" r="10" fill="#0f172a"/>
  <circle cx="78" cy="52" r="10" fill="#0f172a"/>
  <circle cx="44" cy="50" r="4" fill="#22c55e"/>
  <circle cx="80" cy="50" r="4" fill="#22c55e"/>
  <!-- Mouth -->
  <rect x="38" y="70" width="44" height="6" rx="3" fill="#0f172a"/>
  <rect x="42" y="70" width="8" height="6" rx="1" fill="#22c55e"/>
  <rect x="56" y="70" width="8" height="6" rx="1" fill="#22c55e"/>
  <rect x="70" y="70" width="8" height="6" rx="1" fill="#22c55e"/>
  <!-- Ears -->
  <rect x="8" y="42" width="12" height="20" rx="4" fill="#f59e0b"/>
  <rect x="100" y="42" width="12" height="20" rx="4" fill="#f59e0b"/>
  <!-- Neck/Body hint -->
  <rect x="45" y="89" width="30" height="12" rx="4" fill="#6366f1" opacity="0.7"/>
  <rect x="35" y="101" width="50" height="14" rx="6" fill="#6366f1" opacity="0.5"/>
</svg>